{"title":"H-Street - Hokus Pokus [1989][skateboarding] DVDrip.avi","uid":4694469,"size":733925376,"categoryP":"video","categoryS":"movies","magnet":"?xt=urn:btih:21c030fa6ebbad7504b323f0f1d3397e95727e1c&amp;dn=H-Street+-+Hokus+Pokus+%5B1989%5D%5Bskateboarding%5D+DVDrip.avi&amp;tr=udp%3A%2F%2Ftracker.openbittorrent.com%3A80&amp;tr=udp%3A%2F%2Fopen.demonii.com%3A1337&amp;tr=udp%3A%2F%2Ftracker.coppersurfer.tk%3A6969&amp;tr=udp%3A%2F%2Fexodus.desync.com%3A6969","seeders":1,"leechers":1,"uploader":"highateus","files":1,"time":1233509650,"description":"In 1989 came this world-renowned film that sold more copies than any other skateboard film. Hokus pokus reflects H-street at it's best, while skateboarding was on top. Still filmed with inexpensive cameras and edited in the living room, Hokus Pokus made history with the skating from Matt Hensley, Sal Barbier, Danny Way, Mike Carroll, Alphonzo Rawls, Ron Allen, Jason Rogers, John Shultes, John Sonner, Colby Carter, Tony Magnusson, Brian Lotti, Dave Donalson, John Reeves, Aaron Vincent, John De Ago, Donger, Steve Ortega, Ray Simmonds, Kit Erickson, Josh Swindell, Brennand Schoeffel, Chris Livingston, Eddie Elguera, Art Godoy, Jeff Petit, Noah Salasnek,Darin Jenkins, Ocean Howell, Marcus Wyndham, Dan Peterka and many other great skaters.\n\n\n\n\nGeneral\n\nComplete name                    : H-Street - Hokus Pokus [1989].avi\nFormat                           : AVI\nFormat/Info                      : Audio Video Interleave\nFile size                        : 700 MiB\nDuration                         : 1h 1mn\nOverall bit rate                 : 1603 Kbps\n\n\nVideo\n\nFormat                           : MPEG-4 Visual\nFormat profile                   : Streaming Video@L1\nFormat settings, BVOP            : Yes\nFormat settings, QPel            : No\nFormat settings, GMC             : No warppoints\nFormat settings, Matrix          : Default\nMuxing mode                      : Packed bitstream\nCodec ID                         : XVID\nCodec ID/Hint                    : XviD\nDuration                         : 1h 1mn\nBit rate                         : 1 399 Kbps\nWidth                            : 720 pixels\nHeight                           : 480 pixels\nDisplay aspect ratio             : 1.500\nFrame rate                       : 29.970 fps\nStandard                         : NTSC\nResolution                       : 24 bits\nColorimetry                      : 4:2:0\nScan type                        : Progressive\nBits/(Pixel*Frame)               : 0.135\nStream size                      : 611 MiB (87%)\nWriting library                  : XviD 1.1.2 (UTC 2006-11-01)\n\n\nAudio\n\nFormat                           : MPEG Audio\nFormat version                   : Version 1\nFormat profile                   : Layer 3\nCodec ID                         : 55\nCodec ID/Hint                    : MP3\nDuration                         : 1h 1mn\nBit rate mode                    : Constant\nBit rate                         : 192 Kbps\nChannel(s)                       : 2 channels\nSampling rate                    : 44.1 KHz\nResolution                       : 16 bits\nVideo delay                      : 26ms\nStream size                      : 83.8 MiB (12%)\nAlignment                        : Split accross interleaves\nInterleave, duration             : 33 ms (1.00 video frame)\nTitle                            : Audio Stream\n\n\n","torrent":{"xt":"urn:btih:21c030fa6ebbad7504b323f0f1d3397e95727e1c","amp;dn":"H-Street+-+Hokus+Pokus+%5B1989%5D%5Bskateboarding%5D+DVDrip.avi","amp;tr":["udp%3A%2F%2Ftracker.openbittorrent.com%3A80","udp%3A%2F%2Fopen.demonii.com%3A1337","udp%3A%2F%2Ftracker.coppersurfer.tk%3A6969","udp%3A%2F%2Fexodus.desync.com%3A6969"],"infoHash":"21c030fa6ebbad7504b323f0f1d3397e95727e1c","infoHashBuffer":{"type":"Buffer","data":[33,192,48,250,110,187,173,117,4,179,35,240,241,211,57,126,149,114,126,28]},"announce":[],"urlList":[]}}